# xmcd
# Copyright (C) 1995-1998 Ti Kan
#
# Track frame offsets:
#       150
#       15696
#       29374
#       47295
#
# Disc length: 923 seconds
#
# Revision: 0
# Processed by: cddbd v1.5.2PL0 Copyright (c) Steve Scherf et al.
# Submitted via: CD-Import v1.0
#
DISCID=23039904
DTITLE=Telaphones - Wellingtons Single
DYEAR=2009
DGENRE=
TTITLE0=Wellingtons (Single Edit)
TTITLE1=Murder In The Web (Wellingtons Single Edition)
TTITLE2=Katy (Unplugged)
TTITLE3=Break My Heart (In The Club)
EXTD=
EXTT0=
EXTT1=
EXTT2=
EXTT3=
PLAYORDER=
